<svg xmlns="http://www.w3.org/2000/svg" viewBox="0 0 660 420"><defs><radialGradient id="bg"><stop stop-color="#2a1700" stop-opacity=".45"/><stop offset="1" stop-color="#030404"/></radialGradient><linearGradient id="fur" x1="0" y1="0" x2="1" y2="1"><stop stop-color="#fff0a8"/><stop offset=".35" stop-color="#ffb11f"/><stop offset="1" stop-color="#2b1604"/></linearGradient><linearGradient id="gold"><stop stop-color="#fff2a4"/><stop offset=".45" stop-color="#ffb11f"/><stop offset="1" stop-color="#7b4308"/></linearGradient><filter id="glow"><feGaussianBlur stdDeviation="9" result="b"/><feMerge><feMergeNode in="b"/><feMergeNode in="SourceGraphic"/></feMerge></filter></defs><rect width="660" height="420" rx="26" fill="url(#bg)"/><g opacity=".45"><circle cx="30" cy="70" r="2" fill="#ffb11f"/><circle cx="83" cy="109" r="2" fill="#ffb11f"/><circle cx="136" cy="148" r="2" fill="#ffb11f"/><circle cx="189" cy="187" r="2" fill="#ffb11f"/><circle cx="242" cy="70" r="2" fill="#ffb11f"/><circle cx="295" cy="109" r="2" fill="#ffb11f"/><circle cx="348" cy="148" r="2" fill="#ffb11f"/><circle cx="401" cy="187" r="2" fill="#ffb11f"/><circle cx="454" cy="70" r="2" fill="#ffb11f"/><circle cx="507" cy="109" r="2" fill="#ffb11f"/><circle cx="560" cy="148" r="2" fill="#ffb11f"/><circle cx="613" cy="187" r="2" fill="#ffb11f"/></g><text x="330" y="55" text-anchor="middle" fill="#ffe59a" font-family="Arial" font-size="25" font-weight="900" letter-spacing="10">HASWOLF</text><ellipse cx="330" cy="363" rx="185" ry="30" fill="#ffb11f" opacity=".16" filter="url(#glow)"/><g filter="url(#glow)"><path d="M220 190 L300 235 360 197 438 190 410 330 330 385 250 330Z" fill="url(#fur)" stroke="url(#gold)" stroke-width="12"/><path d="M220 190 L255 118 300 235Z" fill="url(#fur)" stroke="url(#gold)" stroke-width="10"/><path d="M438 190 L405 118 360 235Z" fill="url(#fur)" stroke="url(#gold)" stroke-width="10"/><path d="M268 276 Q300 258 326 278" fill="none" stroke="#100a04" stroke-width="12" stroke-linecap="round"/><path d="M354 270 L392 278 363 296Z" fill="#fff3ba"/><path d="M314 335 L330 346 346 335 330 361Z" fill="#100a04"/></g></svg>