<svg xmlns="http://www.w3.org/2000/svg" viewBox="0 0 660 420"><defs><radialGradient id="bg"><stop stop-color="#342100" stop-opacity=".45"/><stop offset="1" stop-color="#030404"/></radialGradient><linearGradient id="fur" x1="0" y1="0" x2="1" y2="1"><stop stop-color="#fff0a8"/><stop offset=".35" stop-color="#ffd34d"/><stop offset="1" stop-color="#2b1604"/></linearGradient><linearGradient id="gold"><stop stop-color="#fff2a4"/><stop offset=".45" stop-color="#ffd34d"/><stop offset="1" stop-color="#7b4308"/></linearGradient><filter id="glow"><feGaussianBlur stdDeviation="9" result="b"/><feMerge><feMergeNode in="b"/><feMergeNode in="SourceGraphic"/></feMerge></filter></defs><rect width="660" height="420" rx="26" fill="url(#bg)"/><g opacity=".45"><circle cx="30" cy="70" r="2" fill="#ffd34d"/><circle cx="83" cy="109" r="2" fill="#ffd34d"/><circle cx="136" cy="148" r="2" fill="#ffd34d"/><circle cx="189" cy="187" r="2" fill="#ffd34d"/><circle cx="242" cy="70" r="2" fill="#ffd34d"/><circle cx="295" cy="109" r="2" fill="#ffd34d"/><circle cx="348" cy="148" r="2" fill="#ffd34d"/><circle cx="401" cy="187" r="2" fill="#ffd34d"/><circle cx="454" cy="70" r="2" fill="#ffd34d"/><circle cx="507" cy="109" r="2" fill="#ffd34d"/><circle cx="560" cy="148" r="2" fill="#ffd34d"/><circle cx="613" cy="187" r="2" fill="#ffd34d"/></g><text x="330" y="55" text-anchor="middle" fill="#ffe59a" font-family="Arial" font-size="25" font-weight="900" letter-spacing="10">HASWOLF</text><ellipse cx="330" cy="363" rx="185" ry="30" fill="#ffd34d" opacity=".16" filter="url(#glow)"/><g filter="url(#glow)"><path d="M245 265 L305 205 365 244 430 175 414 300 338 356 270 330Z" fill="url(#fur)" stroke="url(#gold)" stroke-width="12"/><path d="M418 182 L486 132 454 230Z" fill="url(#fur)" stroke="url(#gold)" stroke-width="10"/><path d="M367 262 L412 244 393 285Z" fill="#fff3ba"/><path d="M307 302 L334 315 318 335Z" fill="#120b05"/><path d="M422 173 Q466 128 505 112" fill="none" stroke="#ffd34d" stroke-width="8" stroke-linecap="round" opacity=".65"/></g></svg>