<svg xmlns="http://www.w3.org/2000/svg" viewBox="0 0 660 420"><defs><radialGradient id="bg"><stop stop-color="#042c31" stop-opacity=".45"/><stop offset="1" stop-color="#030404"/></radialGradient><linearGradient id="fur" x1="0" y1="0" x2="1" y2="1"><stop stop-color="#fff0a8"/><stop offset=".35" stop-color="#5df0e6"/><stop offset="1" stop-color="#2b1604"/></linearGradient><linearGradient id="gold"><stop stop-color="#fff2a4"/><stop offset=".45" stop-color="#5df0e6"/><stop offset="1" stop-color="#7b4308"/></linearGradient><filter id="glow"><feGaussianBlur stdDeviation="9" result="b"/><feMerge><feMergeNode in="b"/><feMergeNode in="SourceGraphic"/></feMerge></filter></defs><rect width="660" height="420" rx="26" fill="url(#bg)"/><g opacity=".45"><circle cx="30" cy="70" r="2" fill="#5df0e6"/><circle cx="83" cy="109" r="2" fill="#5df0e6"/><circle cx="136" cy="148" r="2" fill="#5df0e6"/><circle cx="189" cy="187" r="2" fill="#5df0e6"/><circle cx="242" cy="70" r="2" fill="#5df0e6"/><circle cx="295" cy="109" r="2" fill="#5df0e6"/><circle cx="348" cy="148" r="2" fill="#5df0e6"/><circle cx="401" cy="187" r="2" fill="#5df0e6"/><circle cx="454" cy="70" r="2" fill="#5df0e6"/><circle cx="507" cy="109" r="2" fill="#5df0e6"/><circle cx="560" cy="148" r="2" fill="#5df0e6"/><circle cx="613" cy="187" r="2" fill="#5df0e6"/></g><text x="330" y="55" text-anchor="middle" fill="#ffe59a" font-family="Arial" font-size="25" font-weight="900" letter-spacing="10">HASWOLF</text><ellipse cx="330" cy="363" rx="185" ry="30" fill="#5df0e6" opacity=".16" filter="url(#glow)"/><g filter="url(#glow)"><path d="M214 180 L300 232 330 198 360 232 446 180 414 332 330 394 246 332Z" fill="url(#fur)" stroke="url(#gold)" stroke-width="12"/><path d="M214 180 L248 105 300 232Z" fill="url(#fur)" stroke="url(#gold)" stroke-width="10"/><path d="M446 180 L412 105 360 232Z" fill="url(#fur)" stroke="url(#gold)" stroke-width="10"/><path d="M265 274 L315 257 292 299Z" fill="#fff3ba"/><path d="M395 274 L345 257 368 299Z" fill="#fff3ba"/><path d="M314 337 L330 347 346 337 330 366Z" fill="#100a04"/></g></svg>