<svg xmlns="http://www.w3.org/2000/svg" viewBox="0 0 900 600">
<defs><radialGradient id="bg"><stop stop-color="#f4c75f" stop-opacity=".34"/><stop offset=".48" stop-color="#130d08"/><stop offset="1" stop-color="#030404"/></radialGradient><linearGradient id="gold" x2="1" y2="1"><stop stop-color="#fff0a8"/><stop offset=".45" stop-color="#f4c75f"/><stop offset="1" stop-color="#9b5b0b"/></linearGradient><filter id="glow"><feGaussianBlur stdDeviation="14" result="b"/><feMerge><feMergeNode in="b"/><feMergeNode in="SourceGraphic"/></feMerge></filter><filter id="shadow"><feDropShadow dx="0" dy="25" stdDeviation="18" flood-opacity=".75"/></filter></defs>
<rect width="900" height="600" rx="34" fill="url(#bg)"/><path d="M0 470 Q225 390 450 475T900 440V600H0Z" fill="#9b5b0b" opacity=".12"/><g opacity=".18" fill="#f4c75f"><circle cx="90" cy="90" r="4"/><circle cx="235" cy="170" r="6"/><circle cx="380" cy="90" r="8"/><circle cx="525" cy="170" r="4"/><circle cx="670" cy="90" r="6"/><circle cx="815" cy="170" r="8"/></g>
<g filter="url(#shadow)"><path d="M450 105 565 160 680 135 640 280 695 390 560 500 450 450 340 500 205 390 260 280 220 135 335 160Z" fill="#070808" stroke="url(#gold)" stroke-width="13"/><path d="M290 180 390 245 325 320Z" fill="url(#gold)" opacity=".88"/><path d="M610 180 510 245 575 320Z" fill="url(#gold)" opacity=".88"/><path d="M330 325 420 300 385 365Z" fill="#f4c75f" filter="url(#glow)"/><path d="M570 325 480 300 515 365Z" fill="#f4c75f" filter="url(#glow)"/><path d="M385 395 450 430 515 395 485 465 450 480 415 465Z" fill="url(#gold)"/></g>
<text x="450" y="75" text-anchor="middle" fill="url(#gold)" font-size="44" font-family="Arial Black,Arial" letter-spacing="14">HASWOLF</text><g filter="url(#glow)"><circle cx="450" cy="310" r="84" fill="#080909" stroke="#f4c75f" stroke-width="5"/><text x="450" y="340" text-anchor="middle" fill="url(#gold)" font-size="90" font-family="Arial Black,Arial">⚔</text></g><text x="450" y="552" text-anchor="middle" fill="#f4c75f" font-size="32" font-family="Arial Black,Arial" letter-spacing="10">ITEM ELITE 3</text>
</svg>